<?xml version="1.0" encoding="UTF-8"?>
<svg xmlns="http://www.w3.org/2000/svg" xmlns:xlink="http://www.w3.org/1999/xlink" width="3000" height="3000" viewBox="0 0 3000 3000">
<defs>
<clipPath id="clip-0">

</clipPath>
<clipPath id="clip-1">
<path clip-rule="nonzero" d="M 1479.128906 887.941406 C 1460.511719 887.53125 1441.640625 887.660156 1422.5 888.328125 C 1290.410156 899.261719 1173.671875 934.359375 1072.300781 993.621094 L 1249.089844 986.359375 C 1171.800781 1000.660156 1094.519531 1014.960938 1017.230469 1029.261719 C 977.738281 1057.449219 940.863281 1089.761719 906.609375 1126.191406 C 875.839844 1158.910156 848.8125 1193.21875 825.523438 1229.128906 L 1068.25 1238.128906 L 803.222656 1266.03125 C 757.949219 1346.679688 730.460938 1434.910156 720.757812 1530.710938 C 847.164062 1525.519531 973.566406 1520.328125 1099.96875 1515.140625 L 1099.980469 1515.140625 C 972.367188 1538.761719 844.761719 1562.371094 717.15625 1585.980469 L 717.160156 1585.980469 C 716.640625 1603.199219 716.667969 1620.660156 717.234375 1638.339844 C 720.441406 1690.210938 729.054688 1740.101562 743.082031 1788 L 743.082031 1788.011719 C 743.109375 1787.988281 743.136719 1787.96875 743.167969 1787.949219 L 743.167969 1787.960938 L 1038.21875 1615.261719 C 1040.640625 1613.839844 1043.230469 1612.730469 1045.941406 1611.960938 L 1045.988281 1611.949219 L 1046.371094 1611.851562 L 1045.988281 1611.949219 L 1104.488281 1595.289062 L 1154.359375 1524.289062 C 1160.460938 1515.589844 1170.339844 1510.320312 1180.949219 1510.089844 L 1180.960938 1510.089844 L 1271.371094 1508.078125 L 1407.539062 1394 C 1408.039062 1393.578125 1408.550781 1393.179688 1409.078125 1392.789062 C 1428.011719 1378.730469 1443.269531 1370.628906 1454.871094 1368.5 L 1454.878906 1368.5 C 1456.710938 1368.160156 1458.578125 1367.96875 1460.441406 1367.941406 L 1460.710938 1367.941406 C 1461.109375 1367.941406 1461.519531 1367.941406 1461.921875 1367.949219 C 1468.339844 1368.089844 1474.578125 1370.070312 1479.910156 1373.679688 C 1562.578125 1429.589844 1611.890625 1465.679688 1627.828125 1481.96875 L 1627.839844 1481.96875 C 1647.039062 1498.910156 1661.140625 1514.121094 1670.148438 1527.609375 L 1670.160156 1527.609375 L 1746.039062 1539.210938 C 1751.300781 1540.011719 1756.289062 1542.058594 1760.601562 1545.179688 C 1822.96875 1590.390625 1880.921875 1629.171875 1934.441406 1661.53125 L 1934.460938 1661.53125 L 1967.800781 1680.328125 L 2182.910156 1782.621094 C 2195.621094 1739.398438 2204.519531 1694.109375 2209.609375 1646.761719 L 2210.789062 1550.539062 C 2210.101562 1542.480469 2209.308594 1534.488281 2208.398438 1526.558594 L 2208.410156 1526.558594 C 2091.570312 1517.570312 1974.738281 1508.589844 1857.898438 1499.609375 C 1972.351562 1492.128906 2086.800781 1484.660156 2201.25 1477.191406 L 2201.269531 1477.191406 C 2184.53125 1382.269531 2151.480469 1296.691406 2102.109375 1220.46875 L 2102.089844 1220.46875 L 1860.070312 1220.789062 L 2080.398438 1189.011719 L 2080.410156 1189.011719 C 2047.320312 1143.859375 2008.089844 1102.21875 1962.71875 1064.109375 C 1938.089844 1043.421875 1912.589844 1024.550781 1886.210938 1007.5 L 1886.21875 1007.5 C 1808.671875 1001.539062 1731.121094 995.570312 1653.570312 989.609375 L 1835.800781 977.710938 L 1835.808594 977.710938 C 1729.929688 920.769531 1611.039062 890.839844 1479.128906 887.941406 Z M 1479.128906 887.941406 "/>
</clipPath>
<clipPath id="clip-2">
<path clip-rule="nonzero" d="M 1479.128906 887.941406 C 1460.511719 887.53125 1441.640625 887.660156 1422.5 888.328125 C 1290.410156 899.261719 1173.671875 934.359375 1072.300781 993.621094 L 1249.089844 986.359375 C 1171.800781 1000.660156 1094.519531 1014.960938 1017.230469 1029.261719 C 977.738281 1057.449219 940.863281 1089.761719 906.609375 1126.191406 C 875.839844 1158.910156 848.8125 1193.21875 825.523438 1229.128906 L 1068.25 1238.128906 L 803.222656 1266.03125 C 757.949219 1346.679688 730.460938 1434.910156 720.757812 1530.710938 C 847.164062 1525.519531 973.566406 1520.328125 1099.96875 1515.140625 L 1099.980469 1515.140625 C 972.367188 1538.761719 844.761719 1562.371094 717.15625 1585.980469 L 717.160156 1585.980469 C 716.640625 1603.199219 716.667969 1620.660156 717.234375 1638.339844 C 720.441406 1690.210938 729.054688 1740.101562 743.082031 1788 L 743.082031 1788.011719 C 743.109375 1787.988281 743.136719 1787.96875 743.167969 1787.949219 L 743.167969 1787.960938 L 1038.21875 1615.261719 C 1040.640625 1613.839844 1043.230469 1612.730469 1045.941406 1611.960938 L 1045.988281 1611.949219 L 1046.371094 1611.851562 L 1045.988281 1611.949219 L 1104.488281 1595.289062 L 1154.359375 1524.289062 C 1160.460938 1515.589844 1170.339844 1510.320312 1180.949219 1510.089844 L 1180.960938 1510.089844 L 1271.371094 1508.078125 L 1407.539062 1394 C 1408.039062 1393.578125 1408.550781 1393.179688 1409.078125 1392.789062 C 1428.011719 1378.730469 1443.269531 1370.628906 1454.871094 1368.5 L 1454.878906 1368.5 C 1456.710938 1368.160156 1458.578125 1367.96875 1460.441406 1367.941406 L 1460.710938 1367.941406 C 1461.109375 1367.941406 1461.519531 1367.941406 1461.921875 1367.949219 C 1468.339844 1368.089844 1474.578125 1370.070312 1479.910156 1373.679688 C 1562.578125 1429.589844 1611.890625 1465.679688 1627.828125 1481.96875 L 1627.839844 1481.96875 C 1647.039062 1498.910156 1661.140625 1514.121094 1670.148438 1527.609375 L 1670.160156 1527.609375 L 1746.039062 1539.210938 C 1751.300781 1540.011719 1756.289062 1542.058594 1760.601562 1545.179688 C 1822.96875 1590.390625 1880.921875 1629.171875 1934.441406 1661.53125 L 1934.460938 1661.53125 L 1967.800781 1680.328125 L 2182.910156 1782.621094 C 2195.621094 1739.398438 2204.519531 1694.109375 2209.609375 1646.761719 L 2210.789062 1550.539062 C 2210.101562 1542.480469 2209.308594 1534.488281 2208.398438 1526.558594 L 2208.410156 1526.558594 C 2091.570312 1517.570312 1974.738281 1508.589844 1857.898438 1499.609375 C 1972.351562 1492.128906 2086.800781 1484.660156 2201.25 1477.191406 L 2201.269531 1477.191406 C 2184.53125 1382.269531 2151.480469 1296.691406 2102.109375 1220.46875 L 2102.089844 1220.46875 L 1860.070312 1220.789062 L 2080.398438 1189.011719 L 2080.410156 1189.011719 C 2047.320312 1143.859375 2008.089844 1102.21875 1962.71875 1064.109375 C 1938.089844 1043.421875 1912.589844 1024.550781 1886.210938 1007.5 L 1886.21875 1007.5 C 1808.671875 1001.539062 1731.121094 995.570312 1653.570312 989.609375 L 1835.800781 977.710938 L 1835.808594 977.710938 C 1729.929688 920.769531 1611.039062 890.839844 1479.128906 887.941406 Z M 1479.128906 887.941406 "/>
</clipPath>
<linearGradient id="linear-pattern-0" gradientUnits="userSpaceOnUse" x1="723.43238" y1="121.393667" x2="434.394633" y2="1645.110602" gradientTransform="matrix(0.75, 0, 0, 0.75, 1095, 687.75)">
<stop offset="0" stop-color="rgb(100%, 96.270752%, 0%)" stop-opacity="1"/>
<stop offset="0.0078125" stop-color="rgb(100%, 96.118164%, 0%)" stop-opacity="1"/>
<stop offset="0.015625" stop-color="rgb(100%, 95.814514%, 0%)" stop-opacity="1"/>
<stop offset="0.0234375" stop-color="rgb(100%, 95.510864%, 0%)" stop-opacity="1"/>
<stop offset="0.03125" stop-color="rgb(100%, 95.207214%, 0%)" stop-opacity="1"/>
<stop offset="0.0390625" stop-color="rgb(100%, 94.903564%, 0%)" stop-opacity="1"/>
<stop offset="0.046875" stop-color="rgb(100%, 94.599915%, 0%)" stop-opacity="1"/>
<stop offset="0.0546875" stop-color="rgb(100%, 94.296265%, 0%)" stop-opacity="1"/>
<stop offset="0.0625" stop-color="rgb(100%, 93.992615%, 0%)" stop-opacity="1"/>
<stop offset="0.0703125" stop-color="rgb(100%, 93.688965%, 0%)" stop-opacity="1"/>
<stop offset="0.078125" stop-color="rgb(100%, 93.385315%, 0%)" stop-opacity="1"/>
<stop offset="0.0859375" stop-color="rgb(100%, 93.081665%, 0%)" stop-opacity="1"/>
<stop offset="0.09375" stop-color="rgb(100%, 92.778015%, 0%)" stop-opacity="1"/>
<stop offset="0.101562" stop-color="rgb(100%, 92.474365%, 0%)" stop-opacity="1"/>
<stop offset="0.109375" stop-color="rgb(100%, 92.170715%, 0%)" stop-opacity="1"/>
<stop offset="0.117187" stop-color="rgb(100%, 91.867065%, 0%)" stop-opacity="1"/>
<stop offset="0.125" stop-color="rgb(100%, 91.563416%, 0%)" stop-opacity="1"/>
<stop offset="0.132813" stop-color="rgb(100%, 91.259766%, 0%)" stop-opacity="1"/>
<stop offset="0.140625" stop-color="rgb(100%, 90.956116%, 0%)" stop-opacity="1"/>
<stop offset="0.148438" stop-color="rgb(100%, 90.652466%, 0%)" stop-opacity="1"/>
<stop offset="0.15625" stop-color="rgb(100%, 90.348816%, 0%)" stop-opacity="1"/>
<stop offset="0.164062" stop-color="rgb(100%, 90.046692%, 0%)" stop-opacity="1"/>
<stop offset="0.171875" stop-color="rgb(100%, 89.743042%, 0%)" stop-opacity="1"/>
<stop offset="0.179688" stop-color="rgb(100%, 89.439392%, 0%)" stop-opacity="1"/>
<stop offset="0.1875" stop-color="rgb(100%, 89.135742%, 0%)" stop-opacity="1"/>
<stop offset="0.195312" stop-color="rgb(100%, 88.832092%, 0%)" stop-opacity="1"/>
<stop offset="0.203125" stop-color="rgb(100%, 88.528442%, 0%)" stop-opacity="1"/>
<stop offset="0.210938" stop-color="rgb(100%, 88.224792%, 0%)" stop-opacity="1"/>
<stop offset="0.21875" stop-color="rgb(100%, 87.921143%, 0%)" stop-opacity="1"/>
<stop offset="0.226562" stop-color="rgb(100%, 87.617493%, 0%)" stop-opacity="1"/>
<stop offset="0.234375" stop-color="rgb(100%, 87.313843%, 0%)" stop-opacity="1"/>
<stop offset="0.239401" stop-color="rgb(100%, 87.010193%, 0%)" stop-opacity="1"/>
<stop offset="0.242188" stop-color="rgb(100%, 86.859131%, 0%)" stop-opacity="1"/>
<stop offset="0.25" stop-color="rgb(100%, 86.706543%, 0%)" stop-opacity="1"/>
<stop offset="0.257812" stop-color="rgb(100%, 86.402893%, 0%)" stop-opacity="1"/>
<stop offset="0.265625" stop-color="rgb(100%, 86.099243%, 0%)" stop-opacity="1"/>
<stop offset="0.273438" stop-color="rgb(100%, 85.795593%, 0%)" stop-opacity="1"/>
<stop offset="0.28125" stop-color="rgb(100%, 85.491943%, 0%)" stop-opacity="1"/>
<stop offset="0.289062" stop-color="rgb(100%, 85.188293%, 0%)" stop-opacity="1"/>
<stop offset="0.296875" stop-color="rgb(100%, 84.884644%, 0%)" stop-opacity="1"/>
<stop offset="0.304687" stop-color="rgb(100%, 84.580994%, 0%)" stop-opacity="1"/>
<stop offset="0.3125" stop-color="rgb(100%, 84.277344%, 0%)" stop-opacity="1"/>
<stop offset="0.320312" stop-color="rgb(100%, 83.973694%, 0%)" stop-opacity="1"/>
<stop offset="0.328125" stop-color="rgb(100%, 83.670044%, 0%)" stop-opacity="1"/>
<stop offset="0.335937" stop-color="rgb(100%, 83.366394%, 0%)" stop-opacity="1"/>
<stop offset="0.34375" stop-color="rgb(100%, 83.062744%, 0%)" stop-opacity="1"/>
<stop offset="0.351562" stop-color="rgb(100%, 82.759094%, 0%)" stop-opacity="1"/>
<stop offset="0.359375" stop-color="rgb(100%, 82.455444%, 0%)" stop-opacity="1"/>
<stop offset="0.367188" stop-color="rgb(100%, 82.151794%, 0%)" stop-opacity="1"/>
<stop offset="0.375" stop-color="rgb(100%, 81.848145%, 0%)" stop-opacity="1"/>
<stop offset="0.382812" stop-color="rgb(100%, 81.544495%, 0%)" stop-opacity="1"/>
<stop offset="0.390625" stop-color="rgb(100%, 81.240845%, 0%)" stop-opacity="1"/>
<stop offset="0.398438" stop-color="rgb(100%, 80.937195%, 0%)" stop-opacity="1"/>
<stop offset="0.40625" stop-color="rgb(100%, 80.633545%, 0%)" stop-opacity="1"/>
<stop offset="0.414062" stop-color="rgb(100%, 80.329895%, 0%)" stop-opacity="1"/>
<stop offset="0.421875" stop-color="rgb(100%, 80.026245%, 0%)" stop-opacity="1"/>
<stop offset="0.429688" stop-color="rgb(100%, 79.722595%, 0%)" stop-opacity="1"/>
<stop offset="0.4375" stop-color="rgb(100%, 79.418945%, 0%)" stop-opacity="1"/>
<stop offset="0.445312" stop-color="rgb(100%, 79.115295%, 0%)" stop-opacity="1"/>
<stop offset="0.453125" stop-color="rgb(100%, 78.811646%, 0%)" stop-opacity="1"/>
<stop offset="0.460938" stop-color="rgb(100%, 78.507996%, 0%)" stop-opacity="1"/>
<stop offset="0.46875" stop-color="rgb(100%, 78.204346%, 0%)" stop-opacity="1"/>
<stop offset="0.476562" stop-color="rgb(100%, 77.900696%, 0%)" stop-opacity="1"/>
<stop offset="0.484375" stop-color="rgb(100%, 77.597046%, 0%)" stop-opacity="1"/>
<stop offset="0.492187" stop-color="rgb(100%, 77.293396%, 0%)" stop-opacity="1"/>
<stop offset="0.5" stop-color="rgb(100%, 76.989746%, 0%)" stop-opacity="1"/>
<stop offset="0.507812" stop-color="rgb(100%, 76.686096%, 0%)" stop-opacity="1"/>
<stop offset="0.515625" stop-color="rgb(100%, 76.382446%, 0%)" stop-opacity="1"/>
<stop offset="0.523437" stop-color="rgb(100%, 76.078796%, 0%)" stop-opacity="1"/>
<stop offset="0.53125" stop-color="rgb(100%, 75.775146%, 0%)" stop-opacity="1"/>
<stop offset="0.539062" stop-color="rgb(100%, 75.471497%, 0%)" stop-opacity="1"/>
<stop offset="0.546875" stop-color="rgb(100%, 75.167847%, 0%)" stop-opacity="1"/>
<stop offset="0.554687" stop-color="rgb(100%, 74.864197%, 0%)" stop-opacity="1"/>
<stop offset="0.5625" stop-color="rgb(100%, 74.560547%, 0%)" stop-opacity="1"/>
<stop offset="0.570312" stop-color="rgb(100%, 74.256897%, 0%)" stop-opacity="1"/>
<stop offset="0.578125" stop-color="rgb(100%, 73.953247%, 0%)" stop-opacity="1"/>
<stop offset="0.585937" stop-color="rgb(100%, 73.649597%, 0%)" stop-opacity="1"/>
<stop offset="0.59375" stop-color="rgb(100%, 73.345947%, 0%)" stop-opacity="1"/>
<stop offset="0.601562" stop-color="rgb(100%, 73.042297%, 0%)" stop-opacity="1"/>
<stop offset="0.609375" stop-color="rgb(100%, 72.738647%, 0%)" stop-opacity="1"/>
<stop offset="0.617187" stop-color="rgb(100%, 72.434998%, 0%)" stop-opacity="1"/>
<stop offset="0.625" stop-color="rgb(100%, 72.131348%, 0%)" stop-opacity="1"/>
<stop offset="0.632812" stop-color="rgb(100%, 71.827698%, 0%)" stop-opacity="1"/>
<stop offset="0.640625" stop-color="rgb(100%, 71.524048%, 0%)" stop-opacity="1"/>
<stop offset="0.648437" stop-color="rgb(100%, 71.220398%, 0%)" stop-opacity="1"/>
<stop offset="0.65625" stop-color="rgb(100%, 70.916748%, 0%)" stop-opacity="1"/>
<stop offset="0.664062" stop-color="rgb(100%, 70.613098%, 0%)" stop-opacity="1"/>
<stop offset="0.671875" stop-color="rgb(100%, 70.309448%, 0%)" stop-opacity="1"/>
<stop offset="0.679687" stop-color="rgb(100%, 70.005798%, 0%)" stop-opacity="1"/>
<stop offset="0.6875" stop-color="rgb(100%, 69.702148%, 0%)" stop-opacity="1"/>
<stop offset="0.695312" stop-color="rgb(100%, 69.398499%, 0%)" stop-opacity="1"/>
<stop offset="0.703125" stop-color="rgb(100%, 69.094849%, 0%)" stop-opacity="1"/>
<stop offset="0.710937" stop-color="rgb(100%, 68.791199%, 0%)" stop-opacity="1"/>
<stop offset="0.71875" stop-color="rgb(100%, 68.487549%, 0%)" stop-opacity="1"/>
<stop offset="0.726562" stop-color="rgb(100%, 68.183899%, 0%)" stop-opacity="1"/>
<stop offset="0.734375" stop-color="rgb(100%, 67.880249%, 0%)" stop-opacity="1"/>
<stop offset="0.742187" stop-color="rgb(100%, 67.576599%, 0%)" stop-opacity="1"/>
<stop offset="0.75" stop-color="rgb(100%, 67.272949%, 0%)" stop-opacity="1"/>
<stop offset="0.757812" stop-color="rgb(100%, 66.969299%, 0%)" stop-opacity="1"/>
<stop offset="0.760599" stop-color="rgb(100%, 66.665649%, 0%)" stop-opacity="1"/>
<stop offset="0.765625" stop-color="rgb(100%, 66.514587%, 0%)" stop-opacity="1"/>
<stop offset="0.773437" stop-color="rgb(100%, 66.363525%, 0%)" stop-opacity="1"/>
<stop offset="0.78125" stop-color="rgb(100%, 66.059875%, 0%)" stop-opacity="1"/>
<stop offset="0.789062" stop-color="rgb(100%, 65.756226%, 0%)" stop-opacity="1"/>
<stop offset="0.796875" stop-color="rgb(100%, 65.452576%, 0%)" stop-opacity="1"/>
<stop offset="0.804687" stop-color="rgb(100%, 65.148926%, 0%)" stop-opacity="1"/>
<stop offset="0.8125" stop-color="rgb(100%, 64.845276%, 0%)" stop-opacity="1"/>
<stop offset="0.820312" stop-color="rgb(100%, 64.541626%, 0%)" stop-opacity="1"/>
<stop offset="0.828125" stop-color="rgb(100%, 64.237976%, 0%)" stop-opacity="1"/>
<stop offset="0.835937" stop-color="rgb(100%, 63.934326%, 0%)" stop-opacity="1"/>
<stop offset="0.84375" stop-color="rgb(100%, 63.630676%, 0%)" stop-opacity="1"/>
<stop offset="0.851562" stop-color="rgb(100%, 63.327026%, 0%)" stop-opacity="1"/>
<stop offset="0.859375" stop-color="rgb(100%, 63.023376%, 0%)" stop-opacity="1"/>
<stop offset="0.867187" stop-color="rgb(100%, 62.719727%, 0%)" stop-opacity="1"/>
<stop offset="0.875" stop-color="rgb(100%, 62.416077%, 0%)" stop-opacity="1"/>
<stop offset="0.882812" stop-color="rgb(100%, 62.112427%, 0%)" stop-opacity="1"/>
<stop offset="0.890625" stop-color="rgb(100%, 61.808777%, 0%)" stop-opacity="1"/>
<stop offset="0.898437" stop-color="rgb(100%, 61.505127%, 0%)" stop-opacity="1"/>
<stop offset="0.90625" stop-color="rgb(100%, 61.201477%, 0%)" stop-opacity="1"/>
<stop offset="0.914062" stop-color="rgb(100%, 60.897827%, 0%)" stop-opacity="1"/>
<stop offset="0.921875" stop-color="rgb(100%, 60.594177%, 0%)" stop-opacity="1"/>
<stop offset="0.929687" stop-color="rgb(100%, 60.290527%, 0%)" stop-opacity="1"/>
<stop offset="0.9375" stop-color="rgb(100%, 59.986877%, 0%)" stop-opacity="1"/>
<stop offset="0.945312" stop-color="rgb(100%, 59.683228%, 0%)" stop-opacity="1"/>
<stop offset="0.953125" stop-color="rgb(100%, 59.379578%, 0%)" stop-opacity="1"/>
<stop offset="0.960938" stop-color="rgb(100%, 59.075928%, 0%)" stop-opacity="1"/>
<stop offset="0.96875" stop-color="rgb(100%, 58.772278%, 0%)" stop-opacity="1"/>
<stop offset="0.976563" stop-color="rgb(100%, 58.468628%, 0%)" stop-opacity="1"/>
<stop offset="0.984375" stop-color="rgb(100%, 58.164978%, 0%)" stop-opacity="1"/>
<stop offset="0.992188" stop-color="rgb(100%, 57.861328%, 0%)" stop-opacity="1"/>
<stop offset="1" stop-color="rgb(100%, 57.557678%, 0%)" stop-opacity="1"/>
</linearGradient>
</defs>

<path fill-rule="nonzero" fill="rgb(0%, 0%, 0%)" fill-opacity="1" d="M 1461.191406 1401.351562 C 1543.890625 1457.28125 1591.710938 1492.191406 1604.660156 1506.078125 C 1629.789062 1528.121094 1644.429688 1545.46875 1648.570312 1558.109375 L 1740.988281 1572.238281 C 1804.230469 1618.070312 1863.050781 1657.421875 1917.449219 1690.300781 L 1952.398438 1710 L 2183.519531 1819.910156 C 2186.738281 1822.019531 2186.210938 1824.320312 2181.941406 1826.820312 L 775.226562 1818.269531 C 772.703125 1817.300781 769.410156 1816.78125 765.347656 1816.691406 C 763.707031 1816.648438 761.9375 1816.679688 760.046875 1816.789062 L 1055.089844 1644.101562 L 1125.03125 1624.179688 L 1181.699219 1543.488281 L 1283.839844 1541.21875 L 1429 1419.609375 C 1443.769531 1408.640625 1454.410156 1402.558594 1460.929688 1401.359375 Z M 1461.539062 1385.519531 C 1461.351562 1385.511719 1461.160156 1385.511719 1460.960938 1385.519531 L 1460.699219 1385.519531 C 1459.808594 1385.53125 1458.929688 1385.621094 1458.058594 1385.78125 C 1449.128906 1387.421875 1436.300781 1394.460938 1419.558594 1406.890625 C 1419.308594 1407.078125 1419.058594 1407.269531 1418.828125 1407.46875 L 1277.929688 1525.511719 L 1181.351562 1527.648438 C 1176.308594 1527.769531 1171.628906 1530.269531 1168.730469 1534.390625 L 1115.289062 1610.480469 L 1050.75 1628.859375 C 1049.46875 1629.230469 1048.238281 1629.75 1047.089844 1630.429688 L 752.042969 1803.121094 C 745.726562 1806.820312 742.765625 1814.359375 744.878906 1821.371094 C 746.871094 1827.96875 752.886719 1832.480469 759.691406 1832.628906 C 760.101562 1832.640625 760.519531 1832.628906 760.9375 1832.609375 C 762.417969 1832.519531 763.769531 1832.5 765 1832.519531 C 767.234375 1832.570312 768.761719 1832.75 769.582031 1833.070312 C 771.277344 1833.710938 773.066406 1834.058594 774.878906 1834.101562 C 774.964844 1834.109375 775.046875 1834.109375 775.132812 1834.109375 L 2181.839844 1842.660156 C 2184.691406 1842.679688 2187.480469 1841.929688 2189.929688 1840.5 C 2190.488281 1840.179688 2191.019531 1839.851562 2191.519531 1839.511719 C 2202.378906 1832.339844 2204.851562 1823.699219 2198.929688 1813.578125 C 2197.351562 1810.871094 2195.109375 1808.570312 2192.210938 1806.671875 C 2191.601562 1806.269531 2190.96875 1805.921875 2190.320312 1805.609375 L 1959.699219 1695.941406 L 1925.589844 1676.699219 L 1925.578125 1676.699219 C 1871.570312 1644.058594 1813.140625 1604.960938 1750.289062 1559.410156 C 1748.238281 1557.929688 1745.878906 1556.960938 1743.378906 1556.578125 L 1659.441406 1543.738281 L 1659.429688 1543.738281 C 1651.960938 1530.128906 1637.378906 1513.78125 1615.699219 1494.699219 L 1615.691406 1494.699219 C 1601.21875 1479.589844 1552.679688 1444.101562 1470.058594 1388.230469 C 1467.539062 1386.519531 1464.578125 1385.578125 1461.539062 1385.519531 Z M 1461.539062 1385.519531 "/>
<path fill-rule="nonzero" fill="rgb(0%, 0%, 0%)" fill-opacity="1" d="M 1127.421875 1620.578125 C 1127.351562 1620.578125 1127.289062 1620.609375 1127.25 1620.660156 L 1124.910156 1624 L 1055.039062 1643.910156 L 1055 1643.929688 L 759.945312 1816.621094 C 759.867188 1816.671875 759.828125 1816.761719 759.855469 1816.851562 C 759.878906 1816.929688 759.957031 1816.988281 760.042969 1816.988281 C 760.046875 1816.988281 760.050781 1816.988281 760.058594 1816.988281 C 761.945312 1816.878906 763.707031 1816.851562 765.34375 1816.890625 C 769.382812 1816.96875 772.652344 1817.5 775.15625 1818.449219 L 775.226562 1818.460938 L 1353.359375 1821.980469 L 1353.460938 1821.949219 C 1353.539062 1821.910156 1353.570312 1821.808594 1353.550781 1821.730469 C 1348.589844 1804.53125 1343.890625 1786.71875 1339.46875 1768.308594 C 1339.460938 1768.25 1339.429688 1768.210938 1339.378906 1768.179688 L 1280.058594 1734.070312 C 1280.019531 1734.050781 1279.96875 1734.019531 1279.941406 1734 C 1271.238281 1728.519531 1264.769531 1723.351562 1260.539062 1718.5 C 1260.410156 1718.351562 1260.300781 1718.191406 1260.199219 1718.03125 C 1252.019531 1704.660156 1239.890625 1674.820312 1223.820312 1628.480469 L 1223.78125 1628.410156 C 1222.800781 1627.398438 1221.5 1626.871094 1219.890625 1626.839844 C 1219.539062 1626.828125 1219.179688 1626.839844 1218.808594 1626.878906 L 1218.738281 1626.898438 L 1180.839844 1643.980469 C 1180.789062 1644.011719 1180.730469 1644.03125 1180.679688 1644.058594 C 1178.539062 1644.890625 1176.378906 1645.28125 1174.199219 1645.230469 C 1171.429688 1645.171875 1168.621094 1644.398438 1165.769531 1642.929688 L 1165.769531 1642.921875 C 1152.339844 1636.148438 1139.601562 1628.710938 1127.53125 1620.609375 Z M 1127.421875 1620.578125 "/>
<path fill-rule="nonzero" fill="rgb(0%, 0%, 0%)" fill-opacity="1" d="M 1461.191406 1401.160156 L 1460.890625 1401.160156 C 1454.351562 1402.371094 1443.679688 1408.460938 1428.878906 1419.449219 L 1428.871094 1419.460938 L 1283.761719 1541.03125 L 1246.679688 1541.851562 C 1246.679688 1541.851562 1246.671875 1541.851562 1246.671875 1541.851562 C 1246.660156 1541.851562 1246.648438 1541.851562 1246.640625 1541.851562 C 1246.550781 1541.859375 1246.46875 1541.941406 1246.460938 1542.039062 C 1246.460938 1542.050781 1246.460938 1542.050781 1246.460938 1542.050781 C 1246.460938 1542.078125 1246.46875 1542.109375 1246.480469 1542.128906 L 1260.421875 1600.050781 C 1260.429688 1600.109375 1260.460938 1600.148438 1260.511719 1600.179688 C 1261.910156 1600.988281 1263.941406 1601.421875 1266.609375 1601.480469 C 1266.941406 1601.488281 1267.28125 1601.488281 1267.628906 1601.480469 L 1267.648438 1601.480469 C 1296.109375 1598.140625 1316.160156 1596.589844 1327.800781 1596.839844 C 1333.300781 1596.960938 1336.898438 1597.480469 1338.609375 1598.398438 C 1339.300781 1598.78125 1339.859375 1599.21875 1340.300781 1599.730469 L 1340.359375 1599.78125 C 1344.519531 1601.878906 1349.78125 1607.128906 1356.148438 1615.539062 L 1356.179688 1615.570312 L 1401.640625 1676.871094 L 1401.730469 1676.941406 L 1470.699219 1700.75 L 1470.710938 1700.761719 C 1474.289062 1701.761719 1477.421875 1702.289062 1480.101562 1702.351562 C 1482.921875 1702.410156 1485.25 1701.949219 1487.101562 1700.980469 C 1487.398438 1700.820312 1487.730469 1700.699219 1488.058594 1700.640625 C 1491.230469 1700.039062 1494.96875 1692.179688 1499.28125 1677.070312 L 1499.308594 1676.960938 C 1513.601562 1632.25 1522.738281 1602.691406 1526.738281 1588.289062 L 1526.75 1588.25 C 1530.050781 1576.941406 1531.308594 1569.730469 1530.53125 1566.628906 L 1530.519531 1566.589844 L 1530.511719 1566.589844 L 1530.519531 1566.589844 C 1530.449219 1566.320312 1530.421875 1566.039062 1530.421875 1565.75 C 1530.460938 1562.660156 1527.359375 1556.769531 1521.128906 1548.070312 L 1521.058594 1547.96875 C 1502.929688 1520.609375 1483.21875 1493.078125 1461.921875 1465.371094 C 1461.851562 1465.28125 1461.789062 1465.191406 1461.730469 1465.089844 C 1458.089844 1459.269531 1456.730469 1454.261719 1457.660156 1450.078125 L 1457.679688 1449.988281 C 1461.46875 1434.648438 1465.410156 1420.308594 1469.5 1406.980469 L 1469.488281 1406.980469 C 1469.511719 1406.960938 1469.519531 1406.941406 1469.519531 1406.910156 C 1469.539062 1406.828125 1469.511719 1406.75 1469.441406 1406.699219 C 1466.769531 1404.890625 1464.058594 1403.058594 1461.300781 1401.191406 Z M 1461.191406 1401.160156 "/>
<path fill-rule="nonzero" fill="rgb(0%, 0%, 0%)" fill-opacity="1" d="M 1585.859375 1489.460938 C 1585.761719 1489.460938 1585.671875 1489.519531 1585.640625 1489.609375 C 1585.609375 1489.679688 1585.621094 1489.738281 1585.648438 1489.800781 L 1585.640625 1489.800781 C 1590.730469 1520.121094 1595.109375 1539.210938 1598.808594 1547.039062 L 1598.820312 1547.078125 C 1601.578125 1553.121094 1612.25 1569.351562 1630.820312 1595.761719 L 1630.839844 1595.78125 C 1652.058594 1620.46875 1676 1652.5 1702.640625 1691.871094 L 1702.71875 1691.941406 C 1732.730469 1709.078125 1790.808594 1730.601562 1876.949219 1756.5 C 1876.96875 1756.5 1876.988281 1756.511719 1877.011719 1756.511719 C 1877.089844 1756.511719 1877.171875 1756.46875 1877.210938 1756.390625 C 1877.269531 1756.300781 1877.25 1756.191406 1877.171875 1756.109375 C 1866.699219 1746.070312 1856.691406 1735.429688 1847.128906 1724.210938 L 1847.089844 1724.171875 C 1846.769531 1723.949219 1846.460938 1723.671875 1846.148438 1723.328125 C 1844.289062 1721.269531 1833.140625 1704.730469 1812.679688 1673.71875 C 1793.570312 1645.160156 1778.140625 1617.351562 1766.390625 1590.308594 L 1766.378906 1590.308594 C 1766.378906 1590.230469 1766.351562 1590.160156 1766.28125 1590.109375 C 1757.980469 1584.210938 1749.589844 1578.191406 1741.128906 1572.050781 L 1741.019531 1572.011719 L 1648.75 1557.898438 L 1648.738281 1557.898438 C 1644.53125 1545.238281 1629.890625 1527.910156 1604.828125 1505.921875 L 1604.820312 1505.921875 C 1601.230469 1502.070312 1594.960938 1496.601562 1586.011719 1489.519531 C 1586 1489.511719 1586 1489.511719 1586 1489.511719 C 1585.960938 1489.480469 1585.921875 1489.460938 1585.871094 1489.460938 Z M 1585.859375 1489.460938 "/>
<path fill-rule="nonzero" fill="rgb(100%, 100%, 100%)" fill-opacity="1" d="M 1469.519531 1406.128906 C 1469.128906 1406.121094 1468.789062 1406.371094 1468.679688 1406.730469 C 1464.589844 1420.078125 1460.648438 1434.429688 1456.859375 1449.789062 L 1456.851562 1449.800781 L 1456.859375 1449.800781 C 1456.839844 1449.828125 1456.839844 1449.859375 1456.828125 1449.890625 C 1455.851562 1454.308594 1457.25 1459.519531 1461.011719 1465.550781 C 1461.078125 1465.660156 1461.160156 1465.78125 1461.25 1465.890625 C 1482.53125 1493.589844 1502.230469 1521.101562 1520.351562 1548.441406 C 1520.371094 1548.46875 1520.390625 1548.5 1520.410156 1548.53125 L 1520.429688 1548.558594 C 1520.449219 1548.589844 1520.480469 1548.621094 1520.5 1548.648438 C 1526.578125 1557.148438 1529.609375 1562.839844 1529.570312 1565.738281 C 1529.570312 1566.089844 1529.609375 1566.441406 1529.691406 1566.789062 L 1529.679688 1566.789062 C 1529.691406 1566.820312 1529.699219 1566.851562 1529.710938 1566.878906 C 1530.429688 1569.859375 1529.171875 1576.898438 1525.941406 1588.011719 C 1525.929688 1588.03125 1525.929688 1588.039062 1525.921875 1588.058594 C 1521.921875 1602.449219 1512.78125 1632 1498.5 1676.710938 L 1498.5 1676.71875 L 1498.460938 1676.828125 L 1498.460938 1676.839844 C 1494.25 1691.609375 1490.730469 1699.269531 1487.898438 1699.800781 L 1487.898438 1699.808594 C 1487.480469 1699.878906 1487.078125 1700.019531 1486.699219 1700.21875 C 1484.980469 1701.128906 1482.789062 1701.558594 1480.121094 1701.5 C 1477.511719 1701.441406 1474.460938 1700.921875 1470.960938 1699.941406 L 1470.949219 1699.941406 L 1402.199219 1676.199219 L 1356.859375 1615.058594 C 1356.859375 1615.058594 1356.851562 1615.050781 1356.851562 1615.039062 L 1356.828125 1615.019531 C 1350.441406 1606.589844 1345.121094 1601.28125 1340.871094 1599.078125 L 1340.859375 1599.078125 C 1340.378906 1598.53125 1339.761719 1598.050781 1339.011719 1597.648438 C 1337.179688 1596.671875 1333.449219 1596.121094 1327.820312 1595.988281 C 1316.148438 1595.730469 1296.070312 1597.28125 1267.589844 1600.628906 L 1267.578125 1600.628906 C 1267.25 1600.640625 1266.941406 1600.640625 1266.628906 1600.628906 C 1264.269531 1600.578125 1262.449219 1600.230469 1261.179688 1599.570312 L 1247.339844 1542.039062 L 1247.328125 1542.039062 C 1247.328125 1542 1247.320312 1541.96875 1247.320312 1541.941406 L 1247.308594 1541.941406 L 1247.308594 1541.929688 C 1247.269531 1541.621094 1247.050781 1541.359375 1246.75 1541.25 L 1246.738281 1541.25 C 1246.660156 1541.21875 1246.570312 1541.199219 1246.480469 1541.199219 C 1246.46875 1541.199219 1246.460938 1541.199219 1246.441406 1541.199219 L 1181.679688 1542.640625 C 1181.410156 1542.640625 1181.160156 1542.78125 1181 1543 L 1126.828125 1620.128906 C 1126.609375 1620.441406 1126.628906 1620.871094 1126.878906 1621.160156 C 1126.941406 1621.25 1127.03125 1621.320312 1127.121094 1621.359375 C 1139.191406 1629.46875 1151.949219 1636.910156 1165.378906 1643.679688 C 1168.351562 1645.21875 1171.28125 1646.019531 1174.179688 1646.089844 C 1176.480469 1646.140625 1178.75 1645.71875 1180.988281 1644.851562 C 1181.050781 1644.820312 1181.128906 1644.789062 1181.179688 1644.769531 C 1181.179688 1644.769531 1181.191406 1644.769531 1181.191406 1644.761719 L 1218.988281 1627.71875 C 1219.300781 1627.691406 1219.589844 1627.679688 1219.878906 1627.691406 C 1221.199219 1627.71875 1222.269531 1628.121094 1223.070312 1628.910156 C 1239.140625 1675.21875 1251.269531 1705.070312 1259.46875 1718.480469 L 1259.5 1718.53125 C 1259.621094 1718.710938 1259.75 1718.890625 1259.890625 1719.058594 C 1259.910156 1719.078125 1259.929688 1719.101562 1259.949219 1719.109375 L 1259.941406 1719.109375 C 1264.238281 1724.019531 1270.75 1729.210938 1279.480469 1734.71875 L 1279.488281 1734.71875 L 1279.480469 1734.71875 C 1279.511719 1734.730469 1279.53125 1734.75 1279.550781 1734.75 C 1279.570312 1734.769531 1279.589844 1734.78125 1279.609375 1734.789062 C 1279.621094 1734.800781 1279.621094 1734.800781 1279.621094 1734.800781 C 1279.640625 1734.820312 1279.671875 1734.828125 1279.691406 1734.839844 L 1338.710938 1768.78125 C 1343.109375 1787.109375 1347.789062 1804.820312 1352.71875 1821.941406 C 1352.789062 1822.328125 1353.128906 1822.628906 1353.539062 1822.640625 L 1353.550781 1822.640625 C 1353.558594 1822.640625 1353.578125 1822.640625 1353.601562 1822.640625 L 1353.589844 1822.640625 L 2181.929688 1827.679688 C 2182.089844 1827.679688 2182.238281 1827.640625 2182.371094 1827.558594 C 2186.03125 1825.421875 2187.238281 1823.28125 2186 1821.148438 C 2185.589844 1820.460938 2184.929688 1819.820312 2183.988281 1819.199219 L 2183.890625 1819.140625 L 1952.789062 1709.25 L 1917.871094 1689.558594 L 1917.878906 1689.558594 C 1870.878906 1661.160156 1820.578125 1627.921875 1766.988281 1589.851562 C 1766.851562 1589.75 1766.691406 1589.691406 1766.519531 1589.691406 L 1766.511719 1589.691406 C 1766.21875 1589.691406 1765.941406 1589.828125 1765.78125 1590.070312 C 1765.621094 1590.308594 1765.589844 1590.621094 1765.710938 1590.890625 C 1777.46875 1617.898438 1792.890625 1645.671875 1811.96875 1674.191406 C 1832.449219 1705.238281 1843.628906 1721.808594 1845.519531 1723.898438 C 1845.859375 1724.269531 1846.199219 1724.589844 1846.558594 1724.839844 L 1846.550781 1724.839844 C 1855.539062 1735.390625 1864.929688 1745.429688 1874.730469 1754.941406 C 1790.140625 1729.429688 1732.988281 1708.210938 1703.28125 1691.28125 L 1703.269531 1691.28125 C 1676.648438 1651.960938 1652.730469 1619.949219 1631.511719 1595.261719 L 1631.5 1595.238281 C 1613.070312 1569.03125 1602.449219 1552.890625 1599.640625 1546.828125 C 1599.628906 1546.789062 1599.609375 1546.75 1599.589844 1546.710938 L 1599.570312 1546.679688 C 1595.921875 1538.921875 1591.570312 1519.949219 1586.5 1489.769531 C 1586.589844 1489.441406 1586.480469 1489.089844 1586.210938 1488.878906 C 1563.929688 1471.269531 1525.191406 1443.730469 1469.980469 1406.28125 C 1469.851562 1406.191406 1469.691406 1406.140625 1469.519531 1406.128906 Z M 1469.519531 1406.128906 "/>
<g clip-path="url(#clip-0)">
<g clip-path="url(#clip-1)">
<g clip-path="url(#clip-2)">
<path fill-rule="nonzero" fill="url(#linear-pattern-0)" d="M 716.640625 887.53125 L 716.640625 1788.011719 L 2210.789062 1788.011719 L 2210.789062 887.53125 Z M 716.640625 887.53125 "/>
</g>
</g>
</g>
</svg>
